<?xml version="1.0" encoding="iso-8859-1"?>
<!-- Uploaded to: SVG Repo, www.svgrepo.com, Generator: SVG Repo Mixer Tools -->
<!DOCTYPE svg PUBLIC "-//W3C//DTD SVG 1.1//EN" "http://www.w3.org/Graphics/SVG/1.1/DTD/svg11.dtd">
<svg fill="#000000" version="1.1" id="Capa_1" xmlns="http://www.w3.org/2000/svg" xmlns:xlink="http://www.w3.org/1999/xlink" 
	 width="800px" height="800px" viewBox="0 0 34.695 34.695"
	 xml:space="preserve">
<g>
	<path d="M28.708,18.979c0.087,0.164,0.075,0.363-0.029,0.517L18.395,34.479c-0.09,0.132-0.237,0.211-0.397,0.217
		c-0.005,0-0.01,0-0.015,0c-0.154,0-0.3-0.072-0.396-0.194L6.015,19.518c-0.117-0.15-0.137-0.354-0.053-0.525
		c0.084-0.171,0.258-0.279,0.449-0.279h21.854C28.452,18.711,28.621,18.814,28.708,18.979z M6.41,15.983h21.854
		c0.007,0,0.015,0,0.021,0c0.275,0,0.5-0.224,0.5-0.5c0-0.161-0.075-0.303-0.192-0.396L17.088,0.194
		C16.99,0.068,16.846,0.004,16.678,0c-0.16,0.005-0.308,0.085-0.398,0.218L5.998,15.2c-0.105,0.153-0.117,0.353-0.03,0.517
		C6.056,15.879,6.224,15.983,6.41,15.983z"/>
</g>
</svg>